<?xml version="1.0" encoding="UTF-8"?>
<svg width="27px" height="22px" viewBox="0 0 27 22" version="1.1" xmlns="http://www.w3.org/2000/svg" xmlns:xlink="http://www.w3.org/1999/xlink">
    <title>Shape</title>
    <g id="Page-1" stroke="none" stroke-width="1" fill="none" fill-rule="evenodd">
        <g id="профиль" transform="translate(-184.000000, -736.000000)" fill="#BBBBBB" fill-rule="nonzero">
            <g id="menu" transform="translate(0.000000, 727.000000)">
                <path d="M206.281232,12.8349797 L201.807089,12.8349797 L201.807089,11.5566531 C201.807089,10.1446526 200.662436,9 199.250436,9 L194.865776,9 C193.453775,9 192.309123,10.1446526 192.309123,11.5566531 L192.309123,12.8349797 L187.83498,12.8349797 C185.716979,12.8349797 184,14.5519585 184,16.6699593 L184,27.1650203 C184,29.2830211 185.716979,31 187.83498,31 L206.281232,31 C208.399233,31 210.116212,29.2830211 210.116212,27.1650203 L210.116212,16.6699593 C210.116212,14.5519585 208.399233,12.8349797 206.281232,12.8349797 Z M193.587449,11.5566531 C193.587449,10.8506528 194.159775,10.2783266 194.865776,10.2783266 L199.263219,10.2783266 C199.969219,10.2783266 200.541546,10.8506528 200.541546,11.5566531 L200.541546,12.8349797 L193.587449,12.8349797 L193.587449,11.5566531 Z M189.752469,29.7088902 L187.83498,29.7088902 C186.422979,29.7088902 185.278327,28.5642376 185.278327,27.1522371 L185.278327,16.6699593 C185.278327,15.2579588 186.422979,14.1133062 187.83498,14.1133062 L189.752469,14.1133062 L189.752469,29.7088902 Z M203.098199,29.7088902 L191.030796,29.7088902 L191.030796,14.1133062 L203.098199,14.1133062 L203.098199,29.7088902 Z M208.850668,27.1522371 C208.850668,28.5642376 207.706016,29.7088902 206.294015,29.7088902 L204.376525,29.7088902 L204.376525,14.1133062 L206.294015,14.1133062 C207.706016,14.1133062 208.850668,15.2579588 208.850668,16.6699593 L208.850668,27.1522371 Z" id="Shape"></path>
            </g>
        </g>
    </g>
</svg>