<?xml version="1.0" encoding="UTF-8"?>
<svg width="24px" height="23px" viewBox="0 0 24 23" version="1.1" xmlns="http://www.w3.org/2000/svg" xmlns:xlink="http://www.w3.org/1999/xlink">
    <title>Shape</title>
    <g id="Page-1" stroke="none" stroke-width="1" fill="none" fill-rule="evenodd">
        <g id="мои-поездки" transform="translate(-34.000000, -957.000000)" fill="#BBBBBB" fill-rule="nonzero">
            <g id="menu" transform="translate(0.000000, 948.000000)">
                <path d="M48.8690523,31.7712151 L54.0031459,31.7712151 C54.5769564,31.7712151 55.0601652,31.2880063 55.0601652,30.7141958 L55.0601652,21.2010224 L56.9325993,21.2010224 C57.3856076,21.2010224 57.7480142,20.9292175 57.9292175,20.5366103 C58.0802202,20.1138026 57.9896186,19.6607943 57.6574125,19.3587888 L46.7248132,9.27180495 C46.3322061,8.90939835 45.6979945,8.90939835 45.2751868,9.27180495 L34.3425875,19.3587888 C34.0103814,19.6607943 33.9197798,20.1138026 34.0707825,20.5366103 C34.2217853,20.959418 34.6143924,21.2010224 35.0674007,21.2010224 L36.9398348,21.2010224 L36.9398348,30.7141958 C36.9398348,31.2880063 37.4230436,31.7712151 37.9968541,31.7712151 L43.1309477,31.7712151 C43.7047582,31.7712151 44.187967,31.2880063 44.187967,30.7141958 L44.187967,24.251278 L47.812033,24.251278 L47.812033,30.7141958 C47.812033,31.2880063 48.2952418,31.7712151 48.8690523,31.7712151 Z M44.0369642,23.043256 C43.4631538,23.043256 42.9799449,23.5264648 42.9799449,24.1002753 L42.9799449,30.5631931 L38.1478569,30.5631931 L38.1478569,21.0500197 C38.1478569,20.4762092 37.6646481,19.9930004 37.0908376,19.9930004 L35.4298073,19.9930004 L46,10.2382226 L56.5701927,19.9930004 L54.9091624,19.9930004 C54.3353519,19.9930004 53.8521431,20.4762092 53.8521431,21.0500197 L53.8521431,30.5631931 L49.0200551,30.5631931 L49.0200551,24.1002753 C49.0200551,23.5264648 48.5368462,23.043256 47.9630358,23.043256 L44.0369642,23.043256 Z" id="Shape"></path>
            </g>
        </g>
    </g>
</svg>