<?xml version="1.0" encoding="UTF-8"?>
<svg width="22px" height="24px" viewBox="0 0 22 24" version="1.1" xmlns="http://www.w3.org/2000/svg" xmlns:xlink="http://www.w3.org/1999/xlink">
    <title>Shape</title>
    <g id="Page-1" stroke="none" stroke-width="1" fill="none" fill-rule="evenodd">
        <g id="мои-поездки" transform="translate(-314.000000, -957.000000)" fill="#BBBBBB" fill-rule="nonzero">
            <g id="menu" transform="translate(0.000000, 948.000000)">
                <path d="M324.780766,33 C330.735389,33 335.560976,30.693042 335.560976,27.8459368 C335.560976,25.7490997 332.942471,22.672481 329.184412,21.195122 C328.009106,22.6481889 326.468796,23.6756745 324.780766,23.6756745 C323.092942,23.6756745 321.552544,22.6481889 320.376359,21.195122 C316.619237,22.672481 314,25.7490997 314,27.8459368 C314,30.693042 318.82632,33 324.780766,33 L324.780766,33 Z M315.567739,26.6830256 C315.820599,26.1790818 316.206028,25.6404306 316.682357,25.1253676 C317.585257,24.1489893 318.760328,23.2987362 320.049742,22.6804317 C320.586025,23.2302606 321.15932,23.6863538 321.761771,24.0418458 C322.735615,24.6164949 323.751333,24.9078828 324.780766,24.9078828 C326.449397,24.9078828 328.102321,24.123641 329.511,22.6804317 C330.800736,23.2986188 331.975924,24.1489013 332.878853,25.1253382 C333.355094,25.640372 333.740494,26.1789938 333.993296,26.6829376 C334.271767,27.2380474 334.330228,27.6217923 334.330228,27.8459368 C334.330228,28.231882 334.149337,28.6320857 333.792537,29.0354579 C333.365673,29.5180728 332.702065,29.9825566 331.873508,30.3786822 C330.97474,30.8083709 329.918348,31.1476976 328.733665,31.3872154 C327.484632,31.63973 326.154691,31.7677917 324.780766,31.7677917 C323.406871,31.7677917 322.076901,31.63973 320.827838,31.3872154 C319.643097,31.1476976 318.586617,30.8083709 317.68776,30.3786822 C316.859145,29.9825273 316.19542,29.5180434 315.768497,29.0353992 C315.411697,28.6320564 315.230748,28.2318527 315.230748,27.8459368 C315.230748,27.6218216 315.289208,27.238106 315.567739,26.6830256 Z M324.780415,21.9756098 C327.986393,21.9756098 330.585366,17.7017251 330.585366,14.6061238 C330.585366,11.5102879 327.986393,9 324.780415,9 C321.574583,9 318.97561,11.5095545 318.97561,14.6061238 C318.97561,17.7026052 321.574583,21.9756098 324.780415,21.9756098 Z M320.202119,14.6061238 C320.202119,13.4468795 320.672252,12.3544335 321.525814,11.5301191 C322.392548,10.6930729 323.548386,10.2321151 324.780415,10.2321151 C326.012385,10.2321151 327.168282,10.6931902 328.035103,11.5303538 C328.888724,12.3547855 329.358857,13.4471142 329.358857,14.6061238 C329.358857,15.2263765 329.225284,15.9343146 328.972594,16.6534591 C328.713654,17.39044 328.340066,18.1079417 327.892185,18.7284583 C327.43645,19.3598294 326.912234,19.8767897 326.376162,20.2233953 C325.842367,20.568505 325.305507,20.7434946 324.780415,20.7434946 C324.255323,20.7434946 323.718462,20.5685342 323.184726,20.2234834 C322.648654,19.876907 322.124438,19.360064 321.66879,18.7287811 C321.22091,18.1082938 320.847292,17.390792 320.588382,16.6538405 C320.335692,15.9346373 320.202119,15.2265525 320.202119,14.6061238 L320.202119,14.6061238 Z" id="Shape"></path>
            </g>
        </g>
    </g>
</svg>